<?xml version="1.0" encoding="UTF-8"?>
<svg version="1.1" xmlns="http://www.w3.org/2000/svg" width="3500" height="1440">
<path d="M0 0 C1155 0 2310 0 3500 0 C3500 475.2 3500 950.4 3500 1440 C2345 1440 1190 1440 0 1440 C0 964.8 0 489.6 0 0 Z " fill="#8ECB70" transform="translate(0,0)"/>
<path d="M0 0 C158.4 0 316.8 0 480 0 C480 158.4 480 316.8 480 480 C321.6 480 163.2 480 0 480 C0 321.6 0 163.2 0 0 Z " fill="#FEFEFE" transform="translate(576,480)"/>
<path d="M0 0 C1.25159912 0.00523682 2.50319824 0.01047363 3.79272461 0.01586914 C4.78942421 0.01799156 4.78942421 0.01799156 5.80625916 0.02015686 C7.93590735 0.02577021 10.06545175 0.03832485 12.19506836 0.05102539 C13.63582205 0.05603868 15.07657739 0.06060188 16.51733398 0.06469727 C20.05577938 0.07574394 23.59416375 0.09301747 27.13256836 0.11352539 C38.27730221 28.12889793 49.1536871 56.24525899 59.99345398 84.37980652 C64.58624649 96.29728843 69.20006086 108.20657186 73.82006836 120.11352539 C74.39936096 121.60669785 74.39936096 121.60669785 74.99035645 123.1300354 C76.92860434 128.1259387 78.8671591 133.12172283 80.8059082 138.11743164 C84.35321414 147.2585303 87.89748782 156.4008048 91.44204712 165.54296875 C93.42210207 170.64986703 95.40234451 175.7566926 97.38256836 180.86352539 C98.17423593 182.90519171 98.9659026 184.94685837 99.75756836 186.98852539 C100.34538086 188.50446289 100.34538086 188.50446289 100.94506836 190.05102539 C104.50756837 199.23852541 104.50756837 199.23852541 105.69490051 202.30059814 C106.48712162 204.34369092 107.27934778 206.38678174 108.07157898 208.42987061 C110.0423041 213.51220173 112.0129433 218.59456614 113.98339844 223.67700195 C117.646206 233.12429209 121.30982054 242.57126671 124.97640991 252.01708984 C126.68162285 256.41019171 128.38635994 260.80347817 130.09106445 265.19677734 C130.89274922 267.26246132 131.69465919 269.32805792 132.49682617 271.39355469 C134.68750591 277.0344147 136.87340451 282.6770813 139.05291748 288.32226562 C139.79666483 290.24510207 140.54260332 292.16709194 141.29034424 294.08837891 C142.42592735 297.00646757 143.55521021 299.92692732 144.68334961 302.84790039 C145.03100876 303.73680969 145.37866791 304.62571899 145.73686218 305.54156494 C146.20984489 306.7716629 146.20984489 306.7716629 146.69238281 308.02661133 C147.1109832 309.10552643 147.1109832 309.10552643 147.53804016 310.20623779 C148.13256836 312.11352539 148.13256836 312.11352539 148.13256836 315.11352539 C137.90256836 315.11352539 127.67256836 315.11352539 117.13256836 315.11352539 C114.60385396 309.423918 112.15383537 303.78402174 109.90991211 297.98852539 C109.61166031 297.22343155 109.31340851 296.45833771 109.00611877 295.6700592 C108.02523274 293.15206536 107.0475162 290.63285568 106.07006836 288.11352539 C105.37878498 286.33540144 104.68737591 284.55732636 103.99584961 282.77929688 C102.50882457 278.95480499 101.02326957 275.12974542 99.53833008 271.30444336 C97.42886813 265.87263057 95.31186704 260.44378197 93.19325256 255.01553345 C91.43389336 250.506314 89.67748313 245.99594946 87.92166138 241.48535156 C87.06229169 239.27919999 86.20183826 237.07347027 85.34030151 234.86816406 C84.13246272 231.77539613 82.9288775 228.68100555 81.72631836 225.58618164 C81.36147842 224.65475845 80.99663849 223.72333527 80.6207428 222.76368713 C80.29142258 221.91370651 79.96210236 221.06372589 79.62280273 220.18798828 C79.18889221 219.07442711 79.18889221 219.07442711 78.74621582 217.93836975 C78.13256836 216.11352539 78.13256836 216.11352539 78.13256836 214.11352539 C34.24256836 214.11352539 -9.64743164 214.11352539 -54.86743164 214.11352539 C-55.85743164 217.08352539 -56.84743164 220.05352539 -57.86743164 223.11352539 C-58.4575477 224.73149191 -59.05954241 226.34527066 -59.68237305 227.95092773 C-60.00825912 228.7939595 -60.3341452 229.63699127 -60.66990662 230.50556946 C-61.18920494 231.83904671 -61.18920494 231.83904671 -61.71899414 233.19946289 C-62.09085342 234.15898361 -62.46271271 235.11850433 -62.84584045 236.10710144 C-64.05905125 239.23514893 -65.27558934 242.36188899 -66.49243164 245.48852539 C-67.33596821 247.66030708 -68.1794737 249.83210085 -69.02294922 252.00390625 C-77.21455936 273.07598474 -85.52439063 294.10102645 -93.86743164 315.11352539 C-104.42743164 315.11352539 -114.98743164 315.11352539 -125.86743164 315.11352539 C-125.17919125 311.67232342 -124.56514729 309.03356937 -123.32714844 305.85717773 C-123.01057281 305.0390863 -122.69399719 304.22099487 -122.36782837 303.37811279 C-121.84749527 302.05218109 -121.84749527 302.05218109 -121.31665039 300.69946289 C-120.95107025 299.75846741 -120.58549011 298.81747192 -120.20883179 297.84796143 C-118.9948857 294.72656713 -117.77498042 291.60753889 -116.55493164 288.48852539 C-115.69518337 286.28209614 -114.83573214 284.07555112 -113.9765625 281.86889648 C-111.27991075 274.94793543 -108.57452046 268.03040954 -105.86743164 261.11352539 C-105.23242737 259.49039429 -105.23242737 259.49039429 -104.58459473 257.83447266 C-99.19790826 244.0663392 -93.79755371 230.30359093 -88.39233398 216.54272461 C-84.17171772 205.79705399 -79.95725367 195.04896968 -75.74243164 184.30102539 C-75.32746429 183.24293671 -74.91249695 182.18484802 -74.48495483 181.09469604 C-66.34081382 160.32837567 -58.21093171 139.55649043 -50.08520508 118.78295898 C-47.84898316 113.06615591 -45.61219169 107.34957581 -43.37524414 101.63305664 C-43.00304749 100.68189468 -42.63085083 99.73073273 -42.24737549 98.75074768 C-40.37801575 93.97359337 -38.50854196 89.19648372 -36.63891602 84.41943359 C-33.16968012 75.55490073 -29.7014074 66.68999506 -26.23675537 57.82366943 C-24.62609073 53.70203312 -23.01484735 49.58062316 -21.40356445 45.45922852 C-20.64644176 43.52216609 -19.88959266 41.5849967 -19.13305664 39.64770508 C-15.24906811 29.70202068 -11.34884027 19.76280378 -7.40649414 9.84008789 C-7.06556732 8.97684906 -6.7246405 8.11361023 -6.37338257 7.22421265 C-5.90178207 6.0414122 -5.90178207 6.0414122 -5.4206543 4.8347168 C-5.14403961 4.13810944 -4.86742493 3.44150208 -4.58242798 2.7237854 C-3.36710673 -0.01326807 -3.20221914 0.12678007 0 0 Z " fill="#FEFEFD" transform="translate(1334.867431640625,559.886474609375)"/>
<path d="M0 0 C4.02321427 2.01160714 6.59569183 4.3379421 9.68359375 7.48828125 C10.22097672 8.02849411 10.75835968 8.56870697 11.31202698 9.12528992 C13.02528546 10.84970706 14.73146776 12.58093629 16.4375 14.3125 C17.58091562 15.46595552 18.72479125 16.61895523 19.86914062 17.77148438 C21.98260721 19.90123713 24.09331074 22.03364835 26.20092773 24.16918945 C27.12462158 25.10335693 28.04831543 26.03752441 29 27 C29.73805091 27.77307212 30.47610182 28.54614424 31.23651791 29.34264278 C34.32197221 32.30960764 37.58389256 34.80181138 41.01478577 37.348526 C103.90549044 85.02207321 103.90549044 85.02207321 110.02437401 121.92803001 C113.58481174 148.26803046 111.90902204 175.22357443 110.1138941 201.64413893 C109.1485384 216.11801071 108.78413748 230.60884916 108.37369442 245.10704327 C107.71697888 267.7789686 106.30231965 290.33474682 105 313 C70.35 313 35.7 313 0 313 C0 209.71 0 106.42 0 0 Z " fill="#A8BB71" transform="translate(661,564)"/>
<path d="M0 0 C0 103.29 0 206.58 0 313 C-34.32 313 -68.64 313 -104 313 C-108.34415349 262.23385684 -108.34415349 262.23385684 -109.23071289 243.53076172 C-109.28543766 242.38012796 -109.34016243 241.2294942 -109.39654553 240.04399276 C-109.79266701 231.51018245 -110.12968317 222.97491537 -110.4375 214.4375 C-110.48216699 213.23304009 -110.52683398 212.02858019 -110.57285452 210.7876215 C-114.47281059 102.70098132 -114.47281059 102.70098132 -75.99853462 60.37573081 C-68.66654809 52.50290209 -60.74438999 45.34753746 -52.5625 38.375 C-51.94817155 37.8487961 -51.33384311 37.32259219 -50.70089865 36.78044271 C-7.65112297 0 -7.65112297 0 0 0 Z " fill="#A2BE70" transform="translate(971,564)"/>
<path d="M0 0 C1.11632813 -0.01224609 2.23265625 -0.02449219 3.3828125 -0.03710938 C13.81115098 -0.05534074 23.19725732 1.2680269 32.8125 5.375 C33.90800171 5.83737061 33.90800171 5.83737061 35.02563477 6.30908203 C41.00530062 8.91851137 46.20173763 12.03165143 51.25 16.1875 C52.47396484 17.15236328 52.47396484 17.15236328 53.72265625 18.13671875 C71.1626111 32.71943216 80.51619081 54.60832451 83.06689453 76.90136719 C85.38848376 105.88718261 81.35649456 134.6008208 62.875 158 C50.01326442 172.94039991 32.23973937 184.29935213 12.25 186.1875 C-2.13864428 186.88252578 -16.1181104 187.34826518 -29.75 182.1875 C-30.77480469 181.836875 -31.79960937 181.48625 -32.85546875 181.125 C-49.94834282 174.75663295 -63.93983852 162.02260603 -72.75 146.1875 C-73.19859375 145.39988281 -73.6471875 144.61226562 -74.109375 143.80078125 C-88.02015146 117.82541162 -89.4970499 85.08819414 -81.05664062 57.15893555 C-73.92214244 35.16183724 -59.50701674 18.74324004 -39.12133789 8.17675781 C-26.31527732 1.83777942 -14.15385813 0.00806028 0 0 Z " fill="#70DF71" transform="translate(2812.75,667.8125)"/>
<path d="M0 0 C19.10373056 16.16748355 27.73807719 40.78798491 29.83886719 65.18408203 C31.77958632 93.83027257 28.2311909 123.43823086 9.1796875 146.15625 C-4.483046 161.23912426 -21.71744156 169.74139486 -42 171.5625 C-64.53486654 172.64960914 -85.92419157 168.36271825 -103.3125 153.125 C-123.15964467 134.29240586 -131.18821012 109.77236756 -132.27734375 82.82421875 C-132.93469113 55.91545774 -127.32649142 30.20204374 -109 9.5625 C-108.40832031 8.87671875 -107.81664063 8.1909375 -107.20703125 7.484375 C-79.97333588 -22.01395602 -31.35294713 -23.12481521 0 0 Z " fill="#7AD971" transform="translate(2486,682.4375)"/>
<path d="M0 0 C8.91 0 17.82 0 27 0 C27 103.95 27 207.9 27 315 C18.09 315 9.18 315 0 315 C-0.33 300.15 -0.66 285.3 -1 270 C-3.64 274.62 -6.28 279.24 -9 284 C-23.45140693 304.35035694 -44.79599968 314.96381582 -68.85888672 319.54418945 C-83.38424341 321.6519806 -99.93244505 321.33422676 -114 317 C-115.06347656 316.7215625 -116.12695312 316.443125 -117.22265625 316.15625 C-141.31294887 309.49481032 -161.2769417 293.34924587 -173.90234375 271.96630859 C-179.83110649 261.34570025 -183.9555889 249.74885411 -187 238 C-187.32097656 236.76507812 -187.64195312 235.53015625 -187.97265625 234.2578125 C-190.3629269 223.5649174 -190.28738684 212.7129972 -190.3125 201.8125 C-190.31801376 200.66267639 -190.31801376 200.66267639 -190.32363892 199.48962402 C-190.35676209 186.23539659 -189.58285511 173.07537842 -185.9375 160.25 C-185.62268677 159.14156738 -185.62268677 159.14156738 -185.30151367 158.01074219 C-176.58296654 129.07258576 -157.83609646 106.51153614 -131.4921875 92.078125 C-106.67568723 79.18560091 -75.87276847 78.13816946 -49.328125 86.1015625 C-26.30217015 93.76041014 -13.01817882 106.96818707 -1 128 C-0.505 64.64 -0.505 64.64 0 0 Z M-134 127 C-134.68191406 127.59039063 -135.36382813 128.18078125 -136.06640625 128.7890625 C-152.78857312 144.16952909 -160.99989028 168.36626715 -162.12988281 190.54980469 C-163.12933781 219.02922433 -158.74189244 247.31446962 -139.4375 269.4375 C-137.97623575 270.97554254 -136.49877154 272.49848346 -135 274 C-134.46117188 274.55042969 -133.92234375 275.10085938 -133.3671875 275.66796875 C-118.02472639 290.04670743 -96.57589174 294.803407 -76.13671875 294.2421875 C-57.33071043 293.34049899 -41.34484403 287.2482899 -27 275 C-26.34773438 274.45988281 -25.69546875 273.91976562 -25.0234375 273.36328125 C-10.14481456 259.87740612 -3.5688784 239.24682741 -1 220 C-0.81566406 218.90816406 -0.63132812 217.81632812 -0.44140625 216.69140625 C3.01102951 187.8192665 -2.03918695 156.04736404 -19.9375 132.5625 C-32.60945791 117.76224028 -50.2120157 108.35693184 -69.78491211 106.77490234 C-94.12852599 105.82615132 -115.56391162 110.13081244 -134 127 Z " fill="#FEFEFE" transform="translate(2516,560)"/>
<path d="M0 0 C7.67288123 6.93924609 14.55653922 14.15265361 20 23 C20.58136719 23.91007813 21.16273438 24.82015625 21.76171875 25.7578125 C39.90361815 55.27283322 43.92961913 94.58850649 36 128 C28.93691056 157.4896357 11.79576099 182.8426008 -14 199 C-21.40882413 203.3303891 -29.02978784 206.54138106 -37.125 209.3125 C-37.82850586 209.55516602 -38.53201172 209.79783203 -39.25683594 210.04785156 C-50.29261751 213.63181921 -61.26754483 214.36225958 -72.8125 214.3125 C-73.473638 214.31100952 -74.134776 214.30951904 -74.81594849 214.3079834 C-84.63661002 214.26818696 -93.52027555 213.65754411 -103 211 C-104.2065625 210.73316406 -105.413125 210.46632813 -106.65625 210.19140625 C-132.35922704 204.21705725 -155.03172899 187.45128302 -169.109375 165.25048828 C-180.24469706 146.88830186 -186.07659328 124.92513084 -186.203125 103.51953125 C-186.20882507 102.74421555 -186.21452515 101.96889984 -186.22039795 101.17008972 C-186.22977035 99.54073416 -186.23635067 97.91136031 -186.24023438 96.28198242 C-186.24990934 93.83542468 -186.2809944 91.38971989 -186.3125 88.94335938 C-186.37797617 79.17621982 -185.50765242 70.48566446 -183 61 C-182.70988037 59.80842285 -182.41976074 58.6168457 -182.12084961 57.38916016 C-175.13498822 29.17986788 -155.91186476 6.06374678 -131.53125 -8.93359375 C-91.89235211 -32.55032795 -35.49760965 -30.39367873 0 0 Z M-111 10 C-111.89074219 10.40734375 -112.78148438 10.8146875 -113.69921875 11.234375 C-134.45647918 21.53724879 -146.64814554 39.59901706 -154.0234375 60.96484375 C-162.66039309 90.08250097 -158.66688405 122.59163214 -144.62109375 149.296875 C-141.8457419 153.92469062 -138.58814369 157.98074847 -135 162 C-134.33355469 162.76054688 -133.66710938 163.52109375 -132.98046875 164.3046875 C-120.72133946 177.45084099 -102.06321035 187.08020999 -83.93334961 188.18725586 C-80.49480747 188.26813605 -77.06436583 188.27287826 -73.625 188.25 C-72.47 188.25773438 -71.315 188.26546875 -70.125 188.2734375 C-47.81817946 188.2230835 -29.79949935 180.04267493 -13.59765625 164.75 C6.45367053 143.52273075 11.68729585 115.58192224 11.25 87.3671875 C10.49372136 61.79740653 0.85700478 37.83306883 -17.875 20.125 C-43.36839798 -1.49498247 -81.31772625 -4.13054893 -111 10 Z " fill="#FDFEFD" transform="translate(2885,666)"/>
<path d="M0 0 C9.57 0 19.14 0 29 0 C29.01981934 4.40480713 29.03963867 8.80961426 29.06005859 13.34790039 C29.12710404 27.93639363 29.20464448 42.52481735 29.28752708 57.1132288 C29.33750169 65.95413065 29.38394542 74.79502392 29.421875 83.63598633 C29.45497021 91.34797158 29.49489609 99.05988717 29.54279006 106.77179521 C29.56788214 110.84954414 29.58971288 114.92724789 29.60334396 119.00505257 C29.61632329 122.85543993 29.63854233 126.70567098 29.66738319 130.55597115 C29.6763367 131.95741569 29.68211996 133.35888532 29.68421364 134.7603569 C29.7179621 153.94636608 31.51198775 175.25334099 44.9609375 190.17578125 C57.5018437 202.19603611 74.51865684 206.64851588 91.49194336 206.33203125 C113.13552133 205.5457579 131.84145109 197.75452605 147 182 C152.618485 175.34105482 155.99585071 168.12561413 159 160 C159.29777344 159.25105469 159.59554687 158.50210938 159.90234375 157.73046875 C164.04292415 146.62712131 164.29828806 134.54783281 164.31884766 122.83447266 C164.3281777 121.48266522 164.33835076 120.13086338 164.34928894 118.77906799 C164.37625706 115.15812343 164.39163803 111.53721698 164.40471697 107.91619921 C164.42049519 104.11387864 164.44723736 100.31163437 164.4727478 96.5093689 C164.51927839 89.33104761 164.55614576 82.15271155 164.58942068 74.97431791 C164.62782541 66.79272291 164.67718659 58.61120503 164.72740483 50.42967534 C164.8303415 33.61983402 164.91827892 16.80995989 165 0 C174.24 0 183.48 0 193 0 C193 75.24 193 150.48 193 228 C183.76 228 174.52 228 165 228 C164.67 214.8 164.34 201.6 164 188 C161.03 192.62 158.06 197.24 155 202 C141.72222599 219.51536146 120.24363692 228.99877822 99.01928711 232.62060547 C75.36538218 235.59288397 49.92902253 233.40619276 30.30859375 218.80859375 C29.54675781 218.21175781 28.78492187 217.61492187 28 217 C27.28972656 216.45472656 26.57945312 215.90945313 25.84765625 215.34765625 C7.76783797 200.59924403 2.81438775 175.95910275 0.34724426 153.95431137 C-0.7319198 141.66512132 -0.49490888 129.29768878 -0.40557575 116.97299981 C-0.38007273 112.84117486 -0.37818254 108.70932988 -0.37347412 104.57743835 C-0.3611846 96.8008798 -0.32855932 89.02455402 -0.28807616 81.24809664 C-0.24291368 72.37463746 -0.22126121 63.50116543 -0.20129442 54.62761939 C-0.15980895 36.4182553 -0.08663911 18.20920909 0 0 Z " fill="#FCFEFC" transform="translate(2078,647)"/>
<path d="M0 0 C2.35428629 -0.00967548 4.707686 -0.04077619 7.06176758 -0.07226562 C17.00496832 -0.14084707 26.01624224 0.89105483 35.6887207 3.24023438 C36.66969727 3.46308105 37.65067383 3.68592773 38.66137695 3.91552734 C55.01036851 7.72748516 70.02858885 16.40498639 82.6887207 27.24023438 C80.98777198 31.14859409 78.42430637 34.34790571 75.8137207 37.67773438 C75.37930664 38.23783203 74.94489258 38.79792969 74.49731445 39.375 C71.92355622 42.68687809 69.31639993 45.97091255 66.6887207 49.24023438 C62.60865661 48.64339047 60.01835369 46.4637089 56.7512207 44.05273438 C34.2069165 28.01868609 4.69195983 23.48693083 -22.3815918 27.92382812 C-33.42731662 30.23918933 -44.30022308 35.12777167 -51.3112793 44.24023438 C-56.65682895 52.95331684 -57.64996437 62.02511558 -55.7800293 72.10351562 C-53.31133309 80.94520477 -49.04713605 86.40696564 -41.3112793 91.24023438 C-27.55718477 98.9812323 -11.57480222 101.48931901 3.7512207 104.30273438 C4.45364899 104.43172119 5.15607727 104.56070801 5.87979126 104.69360352 C7.28125322 104.95076955 8.68272705 105.20787089 10.08421326 105.46490479 C35.79258383 110.18280804 64.5566243 116.46155363 80.45043945 139.29492188 C89.52666127 153.55346592 90.70233858 170.87896524 87.5012207 187.24023438 C84.67811439 197.66401154 80.09489135 206.39517954 72.6887207 214.24023438 C72.03387695 214.93632813 71.3790332 215.63242187 70.7043457 216.34960938 C50.48490008 235.96095137 20.68774728 238.80893374 -6.00708008 238.59375 C-16.0457699 238.42115801 -25.56376314 237.63925315 -35.3112793 235.24023438 C-35.98658691 235.08458008 -36.66189453 234.92892578 -37.35766602 234.76855469 C-58.1855863 229.85691051 -77.15632781 219.55995507 -93.1237793 205.42773438 C-93.64657471 204.97148682 -94.16937012 204.51523926 -94.70800781 204.04516602 C-96.14331055 202.72070312 -96.14331055 202.72070312 -98.3112793 200.24023438 C-98.3112793 195.86030685 -98.19237964 195.6200539 -95.35424805 192.70898438 C-94.42708984 191.74025391 -94.42708984 191.74025391 -93.48120117 190.75195312 C-92.82700195 190.08808594 -92.17280273 189.42421875 -91.4987793 188.74023438 C-90.21978856 187.41890994 -88.94239257 186.09603962 -87.66674805 184.77148438 C-87.09593506 184.18947266 -86.52512207 183.60746094 -85.93701172 183.0078125 C-84.25026231 181.17389364 -82.77320207 179.25622172 -81.3112793 177.24023438 C-77.78798444 178.5451584 -76.19392344 180.61174934 -73.8894043 183.47851562 C-58.08638555 201.12000437 -31.32664139 211.0207054 -8.2019043 212.4296875 C-5.06910112 212.50643331 -1.94486366 212.51359028 1.1887207 212.49023438 C2.22641602 212.49796875 3.26411133 212.50570312 4.33325195 212.51367188 C20.61493895 212.47311973 38.6249376 209.01475005 51.2746582 197.95507812 C58.91362011 188.69125416 60.66823663 177.85646556 59.6887207 166.24023438 C57.31857958 157.22015443 51.7614802 151.27647761 43.9387207 146.55273438 C35.36124727 141.64295108 26.37975383 138.66911271 16.8137207 136.36523438 C15.79141357 136.11402832 14.76910645 135.86282227 13.71582031 135.60400391 C5.59067229 133.63497564 -2.57169676 131.85406465 -10.7487793 130.11523438 C-11.93745605 129.86201416 -13.12613281 129.60879395 -14.35083008 129.34790039 C-20.64329427 128.00883486 -20.64329427 128.00883486 -26.94262695 126.70263672 C-45.86425334 122.8336404 -63.77755968 115.63125789 -76.3112793 100.24023438 C-85.89920137 85.31405874 -87.99396181 65.97193129 -84.61987305 48.70117188 C-83.70786228 46.05290631 -82.63655658 43.70500241 -81.3112793 41.24023438 C-80.88717773 40.33660156 -80.46307617 39.43296875 -80.02612305 38.50195312 C-71.51785192 21.36691127 -55.80913835 10.72733543 -37.98706055 4.72460938 C-36.51473429 4.26203944 -35.03946967 3.80870792 -33.5612793 3.36523438 C-32.88895264 3.1620459 -32.21662598 2.95885742 -31.52392578 2.74951172 C-21.22688942 -0.14031382 -10.61349218 0.02626289 0 0 Z " fill="#FDFEFD" transform="translate(1798.311279296875,641.759765625)"/>
<path d="M0 0 C9.24 0 18.48 0 28 0 C28 20.13 28 40.26 28 61 C47.14 61 66.28 61 86 61 C86 68.92 86 76.84 86 85 C66.86 85 47.72 85 28 85 C28.04039592 104.9332983 28.09731515 124.86633024 28.18390274 144.79947662 C28.22359174 154.05626183 28.25603547 163.31296328 28.27099609 172.56982422 C28.28406546 180.64480462 28.31116368 188.71959992 28.35461307 196.79447603 C28.3771099 201.06402196 28.39291783 205.3333406 28.39188385 209.60295105 C28.39113019 213.63486176 28.40935919 217.66627231 28.44116783 221.69805336 C28.44957514 223.16518681 28.45148046 224.63237699 28.44580269 226.09952354 C28.40899883 237.08691689 28.80798103 251.09146561 35.75 260.25 C43.89368302 268.16574278 53.71718174 268.41518043 64.390625 268.30078125 C72.80356494 268.0141769 80.87017974 266.06004495 89 264 C90.00646726 267.43564022 91.0040545 270.87379629 92 274.3125 C92.28617188 275.28896484 92.57234375 276.26542969 92.8671875 277.27148438 C93.13789062 278.20927734 93.40859375 279.14707031 93.6875 280.11328125 C94.06455078 281.40939331 94.06455078 281.40939331 94.44921875 282.73168945 C95 285 95 285 95 288 C74.14404626 294.61991752 47.58113852 298.6917481 26.8125 289.60546875 C24.10985106 288.18585927 21.55324047 286.67080473 19 285 C18.0925 284.4225 17.185 283.845 16.25 283.25 C1.16250292 268.16250292 -0.10295837 246.18882446 -0.12442017 225.98526001 C-0.12088288 224.58953833 -0.1172481 223.1938169 -0.11352539 221.7980957 C-0.11324272 220.2989553 -0.11340282 218.79981476 -0.1139679 217.30067444 C-0.11425274 213.26425211 -0.10840683 209.22785999 -0.10139394 205.19144464 C-0.09510809 200.9607358 -0.09455248 196.73002614 -0.09336853 192.49931335 C-0.09027056 184.50274765 -0.08207799 176.50619575 -0.07201904 168.5096361 C-0.06081008 159.39951997 -0.05533544 150.28940315 -0.05032361 141.17928183 C-0.03989398 122.45284516 -0.02156773 103.72642739 0 85 C-11.88 85 -23.76 85 -36 85 C-36 77.08 -36 69.16 -36 61 C-24.12 61 -12.24 61 0 61 C0 40.87 0 20.74 0 0 Z " fill="#FDFEFD" transform="translate(1951,586)"/>
<path d="M0 0 C9.24 0 18.48 0 28 0 C28 103.95 28 207.9 28 315 C18.76 315 9.52 315 0 315 C0 211.05 0 107.1 0 0 Z " fill="#FEFEFE" transform="translate(1529,560)"/>
<path d="M0 0 C2.35329399 3.52994098 3.62128407 7.19245266 5.02734375 11.16015625 C5.65070012 12.8948104 6.27415903 14.6294277 6.89770508 16.36401367 C7.39410995 17.75165421 7.39410995 17.75165421 7.90054321 19.16732788 C14.19486976 36.74101943 20.67144931 54.24205458 27.3125 71.6875 C27.70216949 72.71178101 28.09183899 73.73606201 28.49331665 74.79138184 C33.08087518 86.83987794 37.71714235 98.8689124 42.39453125 110.8828125 C42.83515396 112.01529922 43.27577667 113.14778595 43.72975159 114.31459045 C45.85408392 119.77244732 47.98354485 125.22820402 50.12231445 130.68041992 C50.88632226 132.63717119 51.65024306 134.59395644 52.4140625 136.55078125 C52.76414871 137.4379483 53.11423492 138.32511536 53.47492981 139.23916626 C53.7946727 140.06040985 54.11441559 140.88165344 54.44384766 141.7277832 C54.72185211 142.43634964 54.99985657 143.14491608 55.2862854 143.87495422 C56 146 56 146 57 151 C19.38 151 -18.24 151 -57 151 C-55.08283098 144.60943661 -53.13685217 138.42397079 -50.76171875 132.21875 C-50.44864777 131.3922998 -50.13557678 130.56584961 -49.8130188 129.71435547 C-48.77441657 126.97499588 -47.73094945 124.2375165 -46.6875 121.5 C-45.94132494 119.53462874 -45.19548425 117.5691305 -44.44995117 115.60351562 C-42.83534634 111.34825287 -41.21870365 107.09377191 -39.60058594 102.83984375 C-36.88794953 95.707483 -34.18176452 88.57268327 -31.4765625 81.4375 C-30.53386921 78.95108479 -29.59116082 76.46467531 -28.6484375 73.97827148 C-28.41441349 73.36103683 -28.18038948 72.74380217 -27.93927383 72.10786343 C-26.29128729 67.76169854 -24.64199801 63.41602944 -22.9921875 59.07055664 C-18.82428671 48.09176625 -14.66051942 37.11153982 -10.5234375 26.12109375 C-9.85963899 24.35936752 -9.19582141 22.59764848 -8.53198242 20.8359375 C-7.33387197 17.6560503 -6.13920255 14.47490009 -4.9465332 11.29296875 C-4.4267262 9.91271102 -3.90679689 8.53249934 -3.38671875 7.15234375 C-2.94545654 5.97663818 -2.50419434 4.80093262 -2.04956055 3.58959961 C-1 1 -1 1 0 0 Z " fill="#99C571" transform="translate(1346,596)"/>
<path d="M0 0 C9.24 0 18.48 0 28 0 C28 75.24 28 150.48 28 228 C18.76 228 9.52 228 0 228 C0 152.76 0 77.52 0 0 Z " fill="#FBFEFB" transform="translate(2616,647)"/>
<path d="M0 0 C10.23 0 20.46 0 31 0 C31 13.86 31 27.72 31 42 C20.77 42 10.54 42 0 42 C0 28.14 0 14.28 0 0 Z " fill="#FCFEFC" transform="translate(2615,560)"/>
</svg>
